<svg width="18" height="18" viewBox="0 0 18 18" fill="none" xmlns="http://www.w3.org/2000/svg">
<path fill-rule="evenodd" clip-rule="evenodd" d="M0 9C0 5.40486 0 3.60729 0.856692 2.31255C1.23925 1.73439 1.73439 1.23925 2.31255 0.856692C3.60729 0 5.40486 0 9 0C12.5951 0 14.3927 0 15.6874 0.856692C16.2656 1.23925 16.7608 1.73439 17.1433 2.31255C18 3.60729 18 5.40486 18 9C18 12.5951 18 14.3927 17.1433 15.6874C16.7608 16.2656 16.2656 16.7608 15.6874 17.1433C14.3927 18 12.5951 18 9 18C5.40486 18 3.60729 18 2.31255 17.1433C1.73439 16.7608 1.23925 16.2656 0.856692 15.6874C0 14.3927 0 12.5951 0 9ZM13.6596 8.99956C13.6596 11.5729 11.5735 13.659 9.00021 13.659C6.42689 13.659 4.34081 11.5729 4.34081 8.99956C4.34081 6.42624 6.42689 4.34015 9.00021 4.34015C11.5735 4.34015 13.6596 6.42624 13.6596 8.99956ZM9.00021 12.0826C10.7029 12.0826 12.0832 10.7023 12.0832 8.99956C12.0832 7.29686 10.7029 5.91655 9.00021 5.91655C7.29752 5.91655 5.91721 7.29686 5.91721 8.99956C5.91721 10.7023 7.29752 12.0826 9.00021 12.0826ZM13.8438 5.20137C14.4485 5.20137 14.9387 4.7112 14.9387 4.10654C14.9387 3.50189 14.4485 3.01172 13.8438 3.01172C13.2392 3.01172 12.749 3.50189 12.749 4.10654C12.749 4.7112 13.2392 5.20137 13.8438 5.20137Z" fill="#FF9748"/>
</svg>
