<svg width="594" height="571" viewBox="0 0 594 571" fill="none" xmlns="http://www.w3.org/2000/svg">
<path d="M207.625 308.372C211.872 313.167 219.942 314.147 225.629 310.602C230.993 307.266 232.309 301.095 228.957 296.404L633.517 51.5412V48.9558L227.467 294.715C225.48 292.859 222.848 291.608 219.843 291.233C219.222 291.149 218.577 291.108 217.931 291.108C215.199 291.108 212.542 291.858 210.282 293.255C204.595 296.8 203.403 303.576 207.625 308.372ZM211.772 294.923C214.007 293.526 216.739 292.963 219.495 293.297C222.227 293.631 224.661 294.861 226.3 296.716C229.727 300.594 228.758 306.057 224.164 308.934C222.302 310.102 220.141 310.644 217.981 310.644C214.802 310.644 211.648 309.435 209.612 307.121C206.21 303.263 207.178 297.78 211.772 294.923Z" fill="url(#paint0_linear_561_190)"/>
<path d="M289.773 290.649C291.81 292.964 294.814 294.486 298.217 294.903C301.619 295.32 305.021 294.611 307.777 292.88C310.534 291.171 312.347 288.648 312.843 285.791C313.29 283.289 312.62 280.808 311.105 278.661L633.516 84.1509V81.6072L309.665 276.972C307.157 274.636 303.63 273.385 300.079 273.385C297.422 273.385 294.74 274.094 292.43 275.512C289.674 277.243 287.861 279.766 287.364 282.622C286.868 285.479 287.712 288.335 289.773 290.649ZM289.823 282.935C290.22 280.62 291.685 278.577 293.92 277.201C298.515 274.324 305.021 275.137 308.448 278.994C310.112 280.871 310.782 283.164 310.385 285.479C309.988 287.793 308.522 289.815 306.287 291.212C304.475 292.338 302.339 292.922 300.129 292.922C299.607 292.922 299.086 292.901 298.589 292.839C295.833 292.505 293.424 291.275 291.76 289.398C290.096 287.543 289.426 285.228 289.823 282.935Z" fill="url(#paint1_linear_561_190)"/>
<path d="M311.553 143.219C315.774 148.014 323.87 149.015 329.557 145.45C334.921 142.114 336.237 135.942 332.885 131.251L551.94 0H547.643L331.444 129.541C328.936 127.206 325.435 125.976 321.883 125.976C319.201 125.976 316.52 126.664 314.21 128.102C308.523 131.647 307.331 138.423 311.553 143.219ZM315.7 129.77C320.294 126.893 326.825 127.706 330.227 131.564C333.654 135.442 332.686 140.904 328.092 143.782C326.229 144.949 324.069 145.491 321.908 145.491C318.73 145.491 315.576 144.282 313.539 141.968C310.137 138.11 311.106 132.627 315.7 129.77Z" fill="url(#paint2_linear_561_190)"/>
<path d="M226.597 47.1419C230.819 51.9374 238.915 52.9382 244.602 49.3728C247.358 47.6631 249.171 45.1403 249.668 42.2838C250.115 39.7818 249.444 37.3007 247.929 35.174L306.635 0H302.314L246.439 33.4851C244.453 31.6295 241.82 30.3785 238.815 30.0032C238.17 29.9198 237.549 29.8781 236.903 29.8781C234.172 29.8781 231.514 30.6078 229.255 32.0256C226.498 33.7353 224.71 36.2582 224.189 39.1146C223.692 41.9711 224.536 44.8275 226.597 47.1419ZM226.647 39.4274C227.069 37.113 228.51 35.0697 230.745 33.6936C232.98 32.2967 235.711 31.7129 238.443 32.0673C241.199 32.4009 243.633 33.6311 245.272 35.4867C246.936 37.3632 247.631 39.6567 247.209 41.9711C246.812 44.2854 245.347 46.3079 243.136 47.7048C241.274 48.8516 239.089 49.4145 236.953 49.4145C233.774 49.4145 230.62 48.2052 228.584 45.8909C226.945 44.0352 226.25 41.7209 226.647 39.4274Z" fill="url(#paint3_linear_561_190)"/>
<path d="M169.977 179.769C172.038 182.083 175.043 183.584 178.445 184.001C181.823 184.439 185.225 183.73 187.981 182C193.345 178.664 194.662 172.492 191.309 167.78L469.219 0H464.948L189.819 166.112C187.832 164.235 185.2 162.984 182.195 162.63C181.55 162.547 180.929 162.505 180.283 162.505C177.551 162.505 174.894 163.235 172.634 164.632C169.878 166.362 168.09 168.885 167.568 171.741C167.072 174.598 167.916 177.434 169.977 179.769ZM170.027 172.033C170.449 169.74 171.889 167.697 174.124 166.32C176.359 164.924 179.091 164.34 181.848 164.694C184.579 165.028 187.013 166.237 188.652 168.114C192.079 171.971 191.11 177.454 186.516 180.332C184.703 181.458 182.543 182.041 180.333 182.041C179.836 182.041 179.315 182.021 178.793 181.958C176.061 181.604 173.628 180.394 171.964 178.518C170.325 176.641 169.63 174.348 170.027 172.033Z" fill="url(#paint4_linear_561_190)"/>
<path d="M458.864 309.81C460.925 312.124 463.905 313.646 467.307 314.063C470.709 314.48 474.112 313.771 476.868 312.041C479.649 310.331 481.438 307.808 481.934 304.952C482.381 302.45 481.736 299.969 480.196 297.842L633.517 205.977V203.391L478.755 296.132C476.247 293.797 472.746 292.567 469.195 292.567C466.513 292.567 463.831 293.255 461.521 294.694C458.765 296.403 456.977 298.926 456.455 301.783C455.959 304.639 456.803 307.495 458.864 309.81ZM458.914 302.095C459.336 299.781 460.776 297.758 463.011 296.362C467.605 293.484 474.136 294.297 477.539 298.155C479.202 300.031 479.898 302.345 479.476 304.639C479.078 306.953 477.613 308.976 475.403 310.373C473.59 311.499 471.43 312.103 469.22 312.103C468.698 312.103 468.201 312.062 467.68 311.999C464.948 311.665 462.514 310.435 460.851 308.559C459.212 306.703 458.516 304.389 458.914 302.095Z" fill="url(#paint5_linear_561_190)"/>
<path d="M551.79 461.64C553.826 463.955 556.831 465.456 560.233 465.873C563.635 466.311 567.038 465.581 569.794 463.871C572.551 462.141 574.363 459.618 574.86 456.762C575.307 454.26 574.636 451.799 573.122 449.652L633.516 413.456V410.912L571.681 447.963C569.173 445.628 565.672 444.377 562.096 444.377C559.438 444.377 556.756 445.065 554.447 446.503C551.69 448.234 549.878 450.757 549.381 453.613C548.884 456.47 549.729 459.305 551.79 461.64ZM551.839 453.905C552.237 451.612 553.702 449.568 555.937 448.171C560.531 445.315 567.062 446.128 570.464 449.985C572.128 451.862 572.799 454.155 572.401 456.47C572.004 458.763 570.539 460.806 568.329 462.183C566.516 463.329 564.355 463.913 562.145 463.913C561.624 463.913 561.127 463.892 560.606 463.809C557.849 463.475 555.44 462.266 553.776 460.389C552.113 458.513 551.442 456.219 551.839 453.905Z" fill="url(#paint6_linear_561_190)"/>
<path d="M376.244 413.018C378.28 415.332 381.285 416.854 384.687 417.271C388.089 417.688 391.492 416.979 394.248 415.249C397.005 413.539 398.817 411.016 399.314 408.16C399.761 405.658 399.091 403.177 397.576 401.05L633.517 258.603V256.017L396.135 399.34C393.627 397.005 390.126 395.775 386.55 395.775C383.893 395.775 381.211 396.463 378.901 397.902C376.145 399.611 374.332 402.134 373.835 404.991C373.338 407.847 374.183 410.703 376.244 413.018ZM376.294 405.303C376.691 402.989 378.156 400.967 380.391 399.57C384.985 396.692 391.516 397.505 394.919 401.363C396.582 403.239 397.278 405.554 396.856 407.847C396.458 410.161 394.993 412.184 392.783 413.581C390.97 414.707 388.81 415.311 386.599 415.311C386.078 415.311 385.581 415.27 385.06 415.207C382.303 414.874 379.894 413.643 378.231 411.788C376.567 409.911 375.896 407.597 376.294 405.303Z" fill="url(#paint7_linear_561_190)"/>
<path d="M362.609 467.248C366.856 472.044 374.927 473.044 380.638 469.5C385.978 466.164 387.294 459.992 383.941 455.28L633.516 304.285V301.72L382.501 453.571C379.993 451.235 376.491 450.005 372.94 450.005C370.258 450.005 367.576 450.693 365.267 452.132C359.58 455.676 358.388 462.473 362.609 467.248ZM366.757 453.8C371.351 450.943 377.882 451.757 381.284 455.614C384.711 459.471 383.743 464.955 379.148 467.811C374.554 470.688 368.023 469.875 364.596 466.018C361.194 462.161 362.162 456.677 366.757 453.8Z" fill="url(#paint8_linear_561_190)"/>
<path d="M236.01 229.851C240.231 234.646 248.327 235.647 254.014 232.082C256.77 230.372 258.583 227.849 259.08 224.993V224.972L288.061 226.16L633.517 17.9729V15.3875L287.315 224.033L259.204 222.887C259.08 220.76 258.236 218.717 256.671 216.965C254.163 214.109 250.264 212.608 246.34 212.608C243.658 212.608 240.976 213.296 238.667 214.734C232.98 218.279 231.763 225.055 236.01 229.851ZM240.157 216.402C244.751 213.525 251.282 214.338 254.685 218.195C256.348 220.072 257.044 222.386 256.622 224.68C256.224 226.994 254.759 229.017 252.549 230.414C250.686 231.581 248.501 232.123 246.365 232.123C243.187 232.123 240.033 230.914 237.997 228.6C234.594 224.742 235.538 219.259 240.157 216.402Z" fill="url(#paint9_linear_561_190)"/>
<path d="M138.191 242.152C140.252 244.466 143.257 245.988 146.659 246.405C150.061 246.822 153.463 246.113 156.22 244.383C161.584 241.047 162.9 234.875 159.523 230.163L258.633 168.385L319.151 175.891L319.648 175.953L612.557 0H608.286L319.027 173.764L257.987 166.195L158.082 228.453C155.574 226.139 152.073 224.909 148.522 224.909C145.864 224.909 143.157 225.597 140.873 227.015C135.161 230.58 133.969 237.356 138.191 242.152ZM142.338 228.704C146.932 225.826 153.463 226.64 156.89 230.497C160.293 234.375 159.349 239.838 154.73 242.715C152.917 243.841 150.781 244.425 148.571 244.425C148.05 244.425 147.528 244.404 147.032 244.341C144.275 244.008 141.841 242.777 140.202 240.901C136.775 237.044 137.744 231.56 142.338 228.704Z" fill="url(#paint10_linear_561_190)"/>
<path d="M63.6417 157.835C65.7029 160.149 68.7077 161.671 72.1099 162.088C75.512 162.505 78.8894 161.796 81.6707 160.065C87.0099 156.729 88.326 150.558 84.9735 145.846L184.083 84.0672L244.602 91.5732L245.099 91.6358L397.65 0H393.379L244.478 89.4465L183.413 81.878L83.5332 144.157C81.025 141.822 77.5235 140.592 73.9724 140.592C71.2904 140.592 68.6084 141.28 66.2989 142.718C60.612 146.263 59.42 153.06 63.6417 157.835ZM67.7889 144.386C72.3831 141.509 78.9142 142.322 82.3412 146.179C85.7433 150.057 84.7749 155.52 80.1807 158.397C78.3679 159.523 76.2322 160.128 73.9972 160.128C73.5006 160.128 72.9791 160.086 72.4576 160.024C69.7259 159.69 67.2922 158.46 65.6532 156.584C62.2262 152.726 63.1947 147.264 67.7889 144.386Z" fill="url(#paint11_linear_561_190)"/>
<path d="M326.229 331.87C330.451 336.665 338.546 337.666 344.233 334.101C346.99 332.391 348.802 329.868 349.299 327.012C349.796 324.155 348.951 321.299 346.89 318.984C345.326 317.191 343.19 315.94 340.856 315.252L347.685 292.338L633.517 120.055V117.49L345.872 290.858L345.5 291.087L338.447 314.752C337.826 314.668 337.18 314.627 336.535 314.627C333.878 314.627 331.171 315.315 328.886 316.753C323.174 320.298 321.982 327.095 326.229 331.87ZM330.351 318.421C334.97 315.544 341.477 316.357 344.904 320.215C346.567 322.091 347.238 324.405 346.841 326.699C346.443 329.013 344.978 331.036 342.743 332.433C340.905 333.6 338.72 334.142 336.56 334.142C333.381 334.142 330.252 332.933 328.216 330.64C324.789 326.761 325.757 321.299 330.351 318.421Z" fill="url(#paint12_linear_561_190)"/>
<path d="M469.343 472.065C473.59 476.84 481.661 477.84 487.372 474.296C490.129 472.565 491.917 470.042 492.438 467.186C492.935 464.33 492.09 461.494 490.029 459.159C488.49 457.407 486.379 456.135 483.995 455.427L490.824 432.512L633.516 346.506V343.942L488.986 431.053L488.639 431.261L481.586 454.926C480.94 454.843 480.295 454.801 479.674 454.801C476.917 454.801 474.26 455.531 472.025 456.928C466.313 460.493 465.122 467.269 469.343 472.065ZM473.49 458.596C475.725 457.22 478.457 456.636 481.213 456.97C483.945 457.324 486.379 458.533 488.043 460.41C489.682 462.286 490.377 464.58 489.98 466.894C489.558 469.188 488.117 471.231 485.882 472.607C484.02 473.775 481.859 474.338 479.699 474.338C476.52 474.338 473.391 473.107 471.355 470.814C467.928 466.957 468.896 461.473 473.49 458.596Z" fill="url(#paint13_linear_561_190)"/>
<path d="M290.792 414.707C292.828 417.021 295.833 418.522 299.235 418.96C302.612 419.377 306.039 418.668 308.796 416.938C311.552 415.207 313.365 412.705 313.862 409.849C314.309 407.326 313.638 404.845 312.099 402.718L409.694 341.878L420.322 288.376L633.517 160.316V157.751L418.46 286.938L418.063 287.188L407.409 340.71L310.658 401.008C308.15 398.694 304.649 397.443 301.098 397.443C298.44 397.443 295.758 398.152 293.449 399.57C290.692 401.3 288.88 403.823 288.383 406.679C287.886 409.536 288.731 412.392 290.792 414.707ZM290.841 406.971C291.239 404.678 292.704 402.634 294.914 401.258C299.533 398.381 306.039 399.194 309.466 403.051C311.13 404.928 311.801 407.221 311.403 409.536C311.006 411.829 309.541 413.873 307.306 415.27C305.493 416.396 303.357 416.979 301.147 416.979C300.626 416.979 300.104 416.958 299.608 416.896C296.851 416.541 294.442 415.332 292.778 413.456C291.115 411.579 290.444 409.286 290.841 406.971Z" fill="url(#paint14_linear_561_190)"/>
<path d="M207.625 308.372C211.872 313.167 219.942 314.147 225.629 310.602C230.993 307.266 232.309 301.095 228.957 296.404L633.517 51.5412V48.9558L227.467 294.715C225.48 292.859 222.848 291.608 219.843 291.233C219.222 291.149 218.577 291.108 217.931 291.108C215.199 291.108 212.542 291.858 210.282 293.255C204.595 296.8 203.403 303.576 207.625 308.372ZM211.772 294.923C214.007 293.526 216.739 292.963 219.495 293.297C222.227 293.631 224.661 294.861 226.3 296.716C229.727 300.594 228.758 306.057 224.164 308.934C222.302 310.102 220.141 310.644 217.981 310.644C214.802 310.644 211.648 309.435 209.612 307.121C206.21 303.263 207.178 297.78 211.772 294.923Z" fill="url(#paint15_linear_561_190)"/>
<path d="M289.773 290.649C291.81 292.964 294.814 294.486 298.217 294.903C301.619 295.32 305.021 294.611 307.777 292.88C310.534 291.171 312.347 288.648 312.843 285.791C313.29 283.289 312.62 280.808 311.105 278.661L633.516 84.1509V81.6072L309.665 276.972C307.157 274.636 303.63 273.385 300.079 273.385C297.422 273.385 294.74 274.094 292.43 275.512C289.674 277.243 287.861 279.766 287.364 282.622C286.868 285.479 287.712 288.335 289.773 290.649ZM289.823 282.935C290.22 280.62 291.685 278.577 293.92 277.201C298.515 274.324 305.021 275.137 308.448 278.994C310.112 280.871 310.782 283.164 310.385 285.479C309.988 287.793 308.522 289.815 306.287 291.212C304.475 292.338 302.339 292.922 300.129 292.922C299.607 292.922 299.086 292.901 298.589 292.839C295.833 292.505 293.424 291.275 291.76 289.398C290.096 287.543 289.426 285.228 289.823 282.935Z" fill="url(#paint16_linear_561_190)"/>
<path d="M311.553 143.219C315.774 148.014 323.87 149.015 329.557 145.45C334.921 142.114 336.237 135.942 332.885 131.251L551.94 0H547.643L331.444 129.541C328.936 127.206 325.435 125.976 321.883 125.976C319.201 125.976 316.52 126.664 314.21 128.102C308.523 131.647 307.331 138.423 311.553 143.219ZM315.7 129.77C320.294 126.893 326.825 127.706 330.227 131.564C333.654 135.442 332.686 140.904 328.092 143.782C326.229 144.949 324.069 145.491 321.908 145.491C318.73 145.491 315.576 144.282 313.539 141.968C310.137 138.11 311.106 132.627 315.7 129.77Z" fill="url(#paint17_linear_561_190)"/>
<path d="M226.597 47.1419C230.819 51.9374 238.915 52.9382 244.602 49.3728C247.358 47.6631 249.171 45.1403 249.668 42.2838C250.115 39.7818 249.444 37.3007 247.929 35.174L306.635 0H302.314L246.439 33.4851C244.453 31.6295 241.82 30.3785 238.815 30.0032C238.17 29.9198 237.549 29.8781 236.903 29.8781C234.172 29.8781 231.514 30.6078 229.255 32.0256C226.498 33.7353 224.71 36.2582 224.189 39.1146C223.692 41.9711 224.536 44.8275 226.597 47.1419ZM226.647 39.4274C227.069 37.113 228.51 35.0697 230.745 33.6936C232.98 32.2967 235.711 31.7129 238.443 32.0673C241.199 32.4009 243.633 33.6311 245.272 35.4867C246.936 37.3632 247.631 39.6567 247.209 41.9711C246.812 44.2854 245.347 46.3079 243.136 47.7048C241.274 48.8516 239.089 49.4145 236.953 49.4145C233.774 49.4145 230.62 48.2052 228.584 45.8909C226.945 44.0352 226.25 41.7209 226.647 39.4274Z" fill="url(#paint18_linear_561_190)"/>
<path d="M169.977 179.769C172.038 182.083 175.043 183.584 178.445 184.001C181.823 184.439 185.225 183.73 187.981 182C193.345 178.664 194.662 172.492 191.309 167.78L469.219 0H464.948L189.819 166.112C187.832 164.235 185.2 162.984 182.195 162.63C181.55 162.547 180.929 162.505 180.283 162.505C177.551 162.505 174.894 163.235 172.634 164.632C169.878 166.362 168.09 168.885 167.568 171.741C167.072 174.598 167.916 177.434 169.977 179.769ZM170.027 172.033C170.449 169.74 171.889 167.697 174.124 166.32C176.359 164.924 179.091 164.34 181.848 164.694C184.579 165.028 187.013 166.237 188.652 168.114C192.079 171.971 191.11 177.454 186.516 180.332C184.703 181.458 182.543 182.041 180.333 182.041C179.836 182.041 179.315 182.021 178.793 181.958C176.061 181.604 173.628 180.394 171.964 178.518C170.325 176.641 169.63 174.348 170.027 172.033Z" fill="url(#paint19_linear_561_190)"/>
<path d="M458.864 309.81C460.925 312.124 463.905 313.646 467.307 314.063C470.709 314.48 474.112 313.771 476.868 312.041C479.649 310.331 481.438 307.808 481.934 304.952C482.381 302.45 481.736 299.969 480.196 297.842L633.517 205.977V203.391L478.755 296.132C476.247 293.797 472.746 292.567 469.195 292.567C466.513 292.567 463.831 293.255 461.521 294.694C458.765 296.403 456.977 298.926 456.455 301.783C455.959 304.639 456.803 307.495 458.864 309.81ZM458.914 302.095C459.336 299.781 460.776 297.758 463.011 296.362C467.605 293.484 474.136 294.297 477.539 298.155C479.202 300.031 479.898 302.345 479.476 304.639C479.078 306.953 477.613 308.976 475.403 310.373C473.59 311.499 471.43 312.103 469.22 312.103C468.698 312.103 468.201 312.062 467.68 311.999C464.948 311.665 462.514 310.435 460.851 308.559C459.212 306.703 458.516 304.389 458.914 302.095Z" fill="url(#paint20_linear_561_190)"/>
<path d="M551.79 461.64C553.826 463.955 556.831 465.456 560.233 465.873C563.635 466.311 567.038 465.581 569.794 463.871C572.551 462.141 574.363 459.618 574.86 456.762C575.307 454.26 574.636 451.799 573.122 449.652L633.516 413.456V410.912L571.681 447.963C569.173 445.628 565.672 444.377 562.096 444.377C559.438 444.377 556.756 445.065 554.447 446.503C551.69 448.234 549.878 450.757 549.381 453.613C548.884 456.47 549.729 459.305 551.79 461.64ZM551.839 453.905C552.237 451.612 553.702 449.568 555.937 448.171C560.531 445.315 567.062 446.128 570.464 449.985C572.128 451.862 572.799 454.155 572.401 456.47C572.004 458.763 570.539 460.806 568.329 462.183C566.516 463.329 564.355 463.913 562.145 463.913C561.624 463.913 561.127 463.892 560.606 463.809C557.849 463.475 555.44 462.266 553.776 460.389C552.113 458.513 551.442 456.219 551.839 453.905Z" fill="url(#paint21_linear_561_190)"/>
<path d="M376.244 413.018C378.28 415.332 381.285 416.854 384.687 417.271C388.089 417.688 391.492 416.979 394.248 415.249C397.005 413.539 398.817 411.016 399.314 408.16C399.761 405.658 399.091 403.177 397.576 401.05L633.517 258.603V256.017L396.135 399.34C393.627 397.005 390.126 395.775 386.55 395.775C383.893 395.775 381.211 396.463 378.901 397.902C376.145 399.611 374.332 402.134 373.835 404.991C373.338 407.847 374.183 410.703 376.244 413.018ZM376.294 405.303C376.691 402.989 378.156 400.967 380.391 399.57C384.985 396.692 391.516 397.505 394.919 401.363C396.582 403.239 397.278 405.554 396.856 407.847C396.458 410.161 394.993 412.184 392.783 413.581C390.97 414.707 388.81 415.311 386.599 415.311C386.078 415.311 385.581 415.27 385.06 415.207C382.303 414.874 379.894 413.643 378.231 411.788C376.567 409.911 375.896 407.597 376.294 405.303Z" fill="url(#paint22_linear_561_190)"/>
<path d="M362.609 467.248C366.856 472.044 374.927 473.044 380.638 469.5C385.978 466.164 387.294 459.992 383.941 455.28L633.516 304.285V301.72L382.501 453.571C379.993 451.235 376.491 450.005 372.94 450.005C370.258 450.005 367.576 450.693 365.267 452.132C359.58 455.676 358.388 462.473 362.609 467.248ZM366.757 453.8C371.351 450.943 377.882 451.757 381.284 455.614C384.711 459.471 383.743 464.955 379.148 467.811C374.554 470.688 368.023 469.875 364.596 466.018C361.194 462.161 362.162 456.677 366.757 453.8Z" fill="url(#paint23_linear_561_190)"/>
<path d="M501.949 535.637C506.196 540.432 514.267 541.433 519.978 537.888C525.317 534.552 526.634 528.381 523.281 523.669L633.516 456.97V454.405L521.841 521.959C519.333 519.624 515.831 518.394 512.28 518.394C509.598 518.394 506.916 519.082 504.606 520.52C498.92 524.065 497.728 530.862 501.949 535.637ZM506.096 522.188C510.691 519.332 517.222 520.145 520.624 524.002C524.051 527.86 523.082 533.343 518.488 536.2C513.894 539.077 507.363 538.264 503.936 534.406C500.534 530.549 501.502 525.066 506.096 522.188Z" fill="url(#paint24_linear_561_190)"/>
<path d="M236.01 229.851C240.231 234.646 248.327 235.647 254.014 232.082C256.77 230.372 258.583 227.849 259.08 224.993V224.972L288.061 226.16L633.517 17.9729V15.3875L287.315 224.033L259.204 222.887C259.08 220.76 258.236 218.717 256.671 216.965C254.163 214.109 250.264 212.608 246.34 212.608C243.658 212.608 240.976 213.296 238.667 214.734C232.98 218.279 231.763 225.055 236.01 229.851ZM240.157 216.402C244.751 213.525 251.282 214.338 254.685 218.195C256.348 220.072 257.044 222.386 256.622 224.68C256.224 226.994 254.759 229.017 252.549 230.414C250.686 231.581 248.501 232.123 246.365 232.123C243.187 232.123 240.033 230.914 237.997 228.6C234.594 224.742 235.538 219.259 240.157 216.402Z" fill="url(#paint25_linear_561_190)"/>
<path d="M138.191 242.152C140.252 244.466 143.257 245.988 146.659 246.405C150.061 246.822 153.463 246.113 156.22 244.383C161.584 241.047 162.9 234.875 159.523 230.163L258.633 168.385L319.151 175.891L319.648 175.953L612.557 0H608.286L319.027 173.764L257.987 166.195L158.082 228.453C155.574 226.139 152.073 224.909 148.522 224.909C145.864 224.909 143.157 225.597 140.873 227.015C135.161 230.58 133.969 237.356 138.191 242.152ZM142.338 228.704C146.932 225.826 153.463 226.64 156.89 230.497C160.293 234.375 159.349 239.838 154.73 242.715C152.917 243.841 150.781 244.425 148.571 244.425C148.05 244.425 147.528 244.404 147.032 244.341C144.275 244.008 141.841 242.777 140.202 240.901C136.775 237.044 137.744 231.56 142.338 228.704Z" fill="url(#paint26_linear_561_190)"/>
<path d="M63.6417 157.835C65.7029 160.149 68.7077 161.671 72.1099 162.088C75.512 162.505 78.8894 161.796 81.6707 160.065C87.0099 156.729 88.326 150.558 84.9735 145.846L184.083 84.0672L244.602 91.5732L245.099 91.6358L397.65 0H393.379L244.478 89.4465L183.413 81.878L83.5332 144.157C81.025 141.822 77.5235 140.592 73.9724 140.592C71.2904 140.592 68.6084 141.28 66.2989 142.718C60.612 146.263 59.42 153.06 63.6417 157.835ZM67.7889 144.386C72.3831 141.509 78.9142 142.322 82.3412 146.179C85.7433 150.057 84.7749 155.52 80.1807 158.397C78.3679 159.523 76.2322 160.128 73.9972 160.128C73.5006 160.128 72.9791 160.086 72.4576 160.024C69.7259 159.69 67.2922 158.46 65.6532 156.584C62.2262 152.726 63.1947 147.264 67.7889 144.386Z" fill="url(#paint27_linear_561_190)"/>
<path d="M326.229 331.87C330.451 336.665 338.546 337.666 344.233 334.101C346.99 332.391 348.802 329.868 349.299 327.012C349.796 324.155 348.951 321.299 346.89 318.984C345.326 317.191 343.19 315.94 340.856 315.252L347.685 292.338L633.517 120.055V117.49L345.872 290.858L345.5 291.087L338.447 314.752C337.826 314.668 337.18 314.627 336.535 314.627C333.878 314.627 331.171 315.315 328.886 316.753C323.174 320.298 321.982 327.095 326.229 331.87ZM330.351 318.421C334.97 315.544 341.477 316.357 344.904 320.215C346.567 322.091 347.238 324.405 346.841 326.699C346.443 329.013 344.978 331.036 342.743 332.433C340.905 333.6 338.72 334.142 336.56 334.142C333.381 334.142 330.252 332.933 328.216 330.64C324.789 326.761 325.757 321.299 330.351 318.421Z" fill="url(#paint28_linear_561_190)"/>
<path d="M469.343 472.065C473.59 476.84 481.661 477.84 487.372 474.296C490.129 472.565 491.917 470.042 492.438 467.186C492.935 464.33 492.09 461.494 490.029 459.159C488.49 457.407 486.379 456.135 483.995 455.427L490.824 432.512L633.516 346.506V343.942L488.986 431.053L488.639 431.261L481.586 454.926C480.94 454.843 480.295 454.801 479.674 454.801C476.917 454.801 474.26 455.531 472.025 456.928C466.313 460.493 465.122 467.269 469.343 472.065ZM473.49 458.596C475.725 457.22 478.457 456.636 481.213 456.97C483.945 457.324 486.379 458.533 488.043 460.41C489.682 462.286 490.377 464.58 489.98 466.894C489.558 469.188 488.117 471.231 485.882 472.607C484.02 473.775 481.859 474.338 479.699 474.338C476.52 474.338 473.391 473.107 471.355 470.814C467.928 466.957 468.896 461.473 473.49 458.596Z" fill="url(#paint29_linear_561_190)"/>
<path d="M568.676 565.974C572.923 570.748 580.994 571.749 586.705 568.205C589.462 566.474 591.25 563.951 591.771 561.095C592.268 558.238 591.423 555.403 589.362 553.067C587.823 551.316 585.712 550.044 583.328 549.335L590.157 526.421L633.516 500.296V497.711L588.319 524.962L587.972 525.17L580.919 548.835C580.273 548.752 579.628 548.71 579.007 548.71C576.25 548.71 573.593 549.44 571.358 550.836C565.646 554.402 564.455 561.178 568.676 565.974ZM572.823 552.504C575.058 551.128 577.79 550.545 580.546 550.878C583.278 551.233 585.712 552.442 587.376 554.318C589.015 556.195 589.71 558.488 589.313 560.803C588.891 563.096 587.45 565.14 585.215 566.516C583.353 567.683 581.192 568.246 579.032 568.246C575.853 568.246 572.724 567.016 570.688 564.723C567.261 560.865 568.229 555.382 572.823 552.504Z" fill="url(#paint30_linear_561_190)"/>
<path d="M87.2325 36.2165C91.479 41.012 99.5499 42.0128 105.262 38.4683C110.601 35.1323 111.917 28.9607 108.564 24.2486L148.645 0H144.374L107.124 22.5389C104.616 20.2037 101.114 18.9735 97.5632 18.9735C94.8812 18.9735 92.1992 19.6616 89.8897 21.1002C84.2029 24.6447 83.0108 31.4418 87.2325 36.2165ZM91.3797 22.7682C95.9739 19.9118 102.505 20.7249 105.907 24.5822C109.334 28.4394 108.366 33.923 103.772 36.7794C99.1773 39.6567 92.6462 38.8436 89.2192 34.9863C85.8171 31.1291 86.7855 25.6455 91.3797 22.7682Z" fill="url(#paint31_linear_561_190)"/>
<path d="M2.52645 24.8118C6.77295 29.6073 14.8438 30.6081 20.5555 27.0635C25.8946 23.7275 27.2108 17.5559 23.8583 12.8438L45.0907 0.000244141H40.8194L22.418 11.1341C19.9098 8.79895 16.4083 7.5688 12.8571 7.5688C10.1751 7.5688 7.49314 8.25685 5.18364 9.6955C-0.503198 13.24 -1.69522 20.0371 2.52645 24.8118ZM6.67357 11.3635C11.2677 8.50705 17.7989 9.3202 21.2011 13.1774C24.6281 17.0347 23.6596 22.5182 19.0655 25.3747C14.4713 28.252 7.94009 27.4389 4.51309 23.5816C1.11092 19.7243 2.07941 14.2408 6.67357 11.3635Z" fill="url(#paint32_linear_561_190)"/>
<path d="M153.96 66.5324C158.207 71.307 166.278 72.3078 171.989 68.7633C174.746 67.0328 176.534 64.5099 177.055 61.6535C177.552 58.797 176.708 55.9614 174.647 53.6262C173.107 51.8748 170.996 50.603 168.612 49.8941L175.441 26.9799L220.216 0H215.944L173.603 25.5204L173.256 25.7289L166.203 49.3937C165.558 49.3103 164.912 49.2686 164.291 49.2686C161.534 49.2686 158.877 49.9983 156.642 51.3953C150.931 54.9606 149.739 61.7369 153.96 66.5324ZM158.108 53.0633C160.343 51.6872 163.074 51.1034 165.831 51.437C168.562 51.7914 170.996 53.0007 172.66 54.8772C174.299 56.7537 174.994 59.0472 174.597 61.3616C174.175 63.6551 172.734 65.6984 170.499 67.0745C168.637 68.2421 166.476 68.805 164.316 68.805C161.137 68.805 158.008 67.5749 155.972 65.2814C152.545 61.4241 153.513 55.9406 158.108 53.0633Z" fill="url(#paint33_linear_561_190)"/>
<path d="M290.792 414.707C292.828 417.021 295.833 418.522 299.235 418.96C302.612 419.377 306.039 418.668 308.796 416.938C311.552 415.207 313.365 412.705 313.862 409.849C314.309 407.326 313.638 404.845 312.099 402.718L409.694 341.878L420.322 288.376L633.517 160.316V157.751L418.46 286.938L418.063 287.188L407.409 340.71L310.658 401.008C308.15 398.694 304.649 397.443 301.098 397.443C298.44 397.443 295.758 398.152 293.449 399.57C290.692 401.3 288.88 403.823 288.383 406.679C287.886 409.536 288.731 412.392 290.792 414.707ZM290.841 406.971C291.239 404.678 292.704 402.634 294.914 401.258C299.533 398.381 306.039 399.194 309.466 403.051C311.13 404.928 311.801 407.221 311.403 409.536C311.006 411.829 309.541 413.873 307.306 415.27C305.493 416.396 303.357 416.979 301.147 416.979C300.626 416.979 300.104 416.958 299.608 416.896C296.851 416.541 294.442 415.332 292.778 413.456C291.115 411.579 290.444 409.286 290.841 406.971Z" fill="url(#paint34_linear_561_190)"/>
<defs>
<linearGradient id="paint0_linear_561_190" x1="854.327" y1="40.7129" x2="325.034" y2="515.439" gradientUnits="userSpaceOnUse">
<stop stop-color="#FF4C24"/>
<stop offset="1" stop-color="#FFE36C"/>
</linearGradient>
<linearGradient id="paint1_linear_561_190" x1="811.997" y1="74.9381" x2="383.805" y2="458.62" gradientUnits="userSpaceOnUse">
<stop stop-color="#FF4C24"/>
<stop offset="1" stop-color="#FFE36C"/>
</linearGradient>
<linearGradient id="paint2_linear_561_190" x1="677.139" y1="-4.61206" x2="380.59" y2="264.922" gradientUnits="userSpaceOnUse">
<stop stop-color="#FF4C24"/>
<stop offset="1" stop-color="#FFE36C"/>
</linearGradient>
<linearGradient id="paint3_linear_561_190" x1="349.2" y1="-1.60966" x2="245.995" y2="89.7668" gradientUnits="userSpaceOnUse">
<stop stop-color="#FF4C24"/>
<stop offset="1" stop-color="#FFE36C"/>
</linearGradient>
<linearGradient id="paint4_linear_561_190" x1="624.764" y1="-5.75398" x2="254.941" y2="328.972" gradientUnits="userSpaceOnUse">
<stop stop-color="#FF4C24"/>
<stop offset="1" stop-color="#FFE36C"/>
</linearGradient>
<linearGradient id="paint5_linear_561_190" x1="724.847" y1="199.929" x2="502.933" y2="395.934" gradientUnits="userSpaceOnUse">
<stop stop-color="#FF4C24"/>
<stop offset="1" stop-color="#FFE36C"/>
</linearGradient>
<linearGradient id="paint6_linear_561_190" x1="676.952" y1="409.191" x2="567.324" y2="501.808" gradientUnits="userSpaceOnUse">
<stop stop-color="#FF4C24"/>
<stop offset="1" stop-color="#FFE36C"/>
</linearGradient>
<linearGradient id="paint7_linear_561_190" x1="767.431" y1="250.975" x2="443.94" y2="538.597" gradientUnits="userSpaceOnUse">
<stop stop-color="#FF4C24"/>
<stop offset="1" stop-color="#FFE36C"/>
</linearGradient>
<linearGradient id="paint8_linear_561_190" x1="774.446" y1="296.411" x2="433.875" y2="599.087" gradientUnits="userSpaceOnUse">
<stop stop-color="#FF4C24"/>
<stop offset="1" stop-color="#FFE36C"/>
</linearGradient>
<linearGradient id="paint9_linear_561_190" x1="839.703" y1="8.54901" x2="398.012" y2="454.441" gradientUnits="userSpaceOnUse">
<stop stop-color="#FF4C24"/>
<stop offset="1" stop-color="#FFE36C"/>
</linearGradient>
<linearGradient id="paint10_linear_561_190" x1="858.351" y1="-7.7038" x2="361.828" y2="522.71" gradientUnits="userSpaceOnUse">
<stop stop-color="#FF4C24"/>
<stop offset="1" stop-color="#FFE36C"/>
</linearGradient>
<linearGradient id="paint11_linear_561_190" x1="571.103" y1="-5.06888" x2="246.698" y2="366.608" gradientUnits="userSpaceOnUse">
<stop stop-color="#FF4C24"/>
<stop offset="1" stop-color="#FFE36C"/>
</linearGradient>
<linearGradient id="paint12_linear_561_190" x1="793.207" y1="110.654" x2="364.665" y2="445.843" gradientUnits="userSpaceOnUse">
<stop stop-color="#FF4C24"/>
<stop offset="1" stop-color="#FFE36C"/>
</linearGradient>
<linearGradient id="paint13_linear_561_190" x1="719.434" y1="339.802" x2="468.82" y2="513.947" gradientUnits="userSpaceOnUse">
<stop stop-color="#FF4C24"/>
<stop offset="1" stop-color="#FFE36C"/>
</linearGradient>
<linearGradient id="paint14_linear_561_190" x1="811.473" y1="149.585" x2="309.153" y2="516.083" gradientUnits="userSpaceOnUse">
<stop stop-color="#FF4C24"/>
<stop offset="1" stop-color="#FFE36C"/>
</linearGradient>
<linearGradient id="paint15_linear_561_190" x1="854.327" y1="40.7129" x2="325.034" y2="515.439" gradientUnits="userSpaceOnUse">
<stop stop-color="#FF4C24"/>
<stop offset="1" stop-color="#FFE36C"/>
</linearGradient>
<linearGradient id="paint16_linear_561_190" x1="811.997" y1="74.9381" x2="383.805" y2="458.62" gradientUnits="userSpaceOnUse">
<stop stop-color="#FF4C24"/>
<stop offset="1" stop-color="#FFE36C"/>
</linearGradient>
<linearGradient id="paint17_linear_561_190" x1="677.139" y1="-4.61206" x2="380.59" y2="264.922" gradientUnits="userSpaceOnUse">
<stop stop-color="#FF4C24"/>
<stop offset="1" stop-color="#FFE36C"/>
</linearGradient>
<linearGradient id="paint18_linear_561_190" x1="349.2" y1="-1.60966" x2="245.995" y2="89.7668" gradientUnits="userSpaceOnUse">
<stop stop-color="#FF4C24"/>
<stop offset="1" stop-color="#FFE36C"/>
</linearGradient>
<linearGradient id="paint19_linear_561_190" x1="624.764" y1="-5.75398" x2="254.941" y2="328.972" gradientUnits="userSpaceOnUse">
<stop stop-color="#FF4C24"/>
<stop offset="1" stop-color="#FFE36C"/>
</linearGradient>
<linearGradient id="paint20_linear_561_190" x1="724.847" y1="199.929" x2="502.933" y2="395.934" gradientUnits="userSpaceOnUse">
<stop stop-color="#FF4C24"/>
<stop offset="1" stop-color="#FFE36C"/>
</linearGradient>
<linearGradient id="paint21_linear_561_190" x1="676.952" y1="409.191" x2="567.324" y2="501.808" gradientUnits="userSpaceOnUse">
<stop stop-color="#FF4C24"/>
<stop offset="1" stop-color="#FFE36C"/>
</linearGradient>
<linearGradient id="paint22_linear_561_190" x1="767.431" y1="250.975" x2="443.94" y2="538.597" gradientUnits="userSpaceOnUse">
<stop stop-color="#FF4C24"/>
<stop offset="1" stop-color="#FFE36C"/>
</linearGradient>
<linearGradient id="paint23_linear_561_190" x1="774.446" y1="296.411" x2="433.875" y2="599.087" gradientUnits="userSpaceOnUse">
<stop stop-color="#FF4C24"/>
<stop offset="1" stop-color="#FFE36C"/>
</linearGradient>
<linearGradient id="paint24_linear_561_190" x1="702.629" y1="451.73" x2="531.639" y2="599.641" gradientUnits="userSpaceOnUse">
<stop stop-color="#FF4C24"/>
<stop offset="1" stop-color="#FFE36C"/>
</linearGradient>
<linearGradient id="paint25_linear_561_190" x1="839.703" y1="8.54901" x2="398.012" y2="454.441" gradientUnits="userSpaceOnUse">
<stop stop-color="#FF4C24"/>
<stop offset="1" stop-color="#FFE36C"/>
</linearGradient>
<linearGradient id="paint26_linear_561_190" x1="858.351" y1="-7.7038" x2="361.828" y2="522.71" gradientUnits="userSpaceOnUse">
<stop stop-color="#FF4C24"/>
<stop offset="1" stop-color="#FFE36C"/>
</linearGradient>
<linearGradient id="paint27_linear_561_190" x1="571.103" y1="-5.06888" x2="246.698" y2="366.608" gradientUnits="userSpaceOnUse">
<stop stop-color="#FF4C24"/>
<stop offset="1" stop-color="#FFE36C"/>
</linearGradient>
<linearGradient id="paint28_linear_561_190" x1="793.207" y1="110.654" x2="364.665" y2="445.843" gradientUnits="userSpaceOnUse">
<stop stop-color="#FF4C24"/>
<stop offset="1" stop-color="#FFE36C"/>
</linearGradient>
<linearGradient id="paint29_linear_561_190" x1="719.434" y1="339.802" x2="468.82" y2="513.947" gradientUnits="userSpaceOnUse">
<stop stop-color="#FF4C24"/>
<stop offset="1" stop-color="#FFE36C"/>
</linearGradient>
<linearGradient id="paint30_linear_561_190" x1="668.236" y1="495.441" x2="549.279" y2="556.382" gradientUnits="userSpaceOnUse">
<stop stop-color="#FF4C24"/>
<stop offset="1" stop-color="#FFE36C"/>
</linearGradient>
<linearGradient id="paint31_linear_561_190" x1="181.6" y1="-1.26838" x2="100.462" y2="69.3156" gradientUnits="userSpaceOnUse">
<stop stop-color="#FF4C24"/>
<stop offset="1" stop-color="#FFE36C"/>
</linearGradient>
<linearGradient id="paint32_linear_561_190" x1="68.3309" y1="-0.911728" x2="10.1589" y2="48.7224" gradientUnits="userSpaceOnUse">
<stop stop-color="#FF4C24"/>
<stop offset="1" stop-color="#FFE36C"/>
</linearGradient>
<linearGradient id="paint33_linear_561_190" x1="255.666" y1="-2.21514" x2="136.536" y2="61.6174" gradientUnits="userSpaceOnUse">
<stop stop-color="#FF4C24"/>
<stop offset="1" stop-color="#FFE36C"/>
</linearGradient>
<linearGradient id="paint34_linear_561_190" x1="811.473" y1="149.585" x2="309.153" y2="516.083" gradientUnits="userSpaceOnUse">
<stop stop-color="#FF4C24"/>
<stop offset="1" stop-color="#FFE36C"/>
</linearGradient>
</defs>
</svg>
